<svg width="1440" height="900" viewBox="0 0 1440 900" fill="none" xmlns="http://www.w3.org/2000/svg">
  <defs>
    <linearGradient id="bg" x1="0" y1="0" x2="1440" y2="900" gradientUnits="userSpaceOnUse">
      <stop stop-color="#F5EFE6"/>
      <stop offset="1" stop-color="#E3EDF6"/>
    </linearGradient>
    <linearGradient id="accent" x1="0" y1="0" x2="1" y2="1">
      <stop stop-color="#FF6B35"/>
      <stop offset="1" stop-color="#FF9B6B"/>
    </linearGradient>
    <linearGradient id="tealBar" x1="0" y1="0" x2="0" y2="1">
      <stop stop-color="#0E7C86"/>
      <stop offset="1" stop-color="#9CD1D7"/>
    </linearGradient>
  </defs>

  <rect width="1440" height="900" fill="url(#bg)"/>
  <circle cx="210" cy="40" r="250" fill="#FFDCCB" opacity="0.7"/>
  <circle cx="1290" cy="40" r="220" fill="#BCD9F4" opacity="0.7"/>

  <rect x="60" y="50" width="1320" height="800" rx="28" fill="#FFFFFF" fill-opacity="0.56" stroke="#FFFFFF"/>

  <rect x="60" y="50" width="280" height="800" rx="28" fill="#FFFFFF" fill-opacity="0.7"/>
  <line x1="340" y1="70" x2="340" y2="830" stroke="#1C2430" stroke-opacity="0.12"/>

  <circle cx="96" cy="101" r="8" fill="url(#accent)"/>
  <text x="116" y="108" font-family="Avenir Next, Segoe UI, sans-serif" font-size="30" font-weight="800" fill="#1C2430">Study Tracker</text>

  <rect x="86" y="142" width="228" height="100" rx="16" fill="#FFFFFF" fill-opacity="0.88" stroke="#1C2430" stroke-opacity="0.12"/>
  <text x="102" y="173" font-family="Avenir Next, Segoe UI, sans-serif" font-size="14" letter-spacing="1" fill="#5D6876">CURRENT STREAK</text>
  <text x="102" y="218" font-family="Avenir Next, Segoe UI, sans-serif" font-size="46" font-weight="800" fill="#1C2430">19</text>
  <text x="172" y="218" font-family="Avenir Next, Segoe UI, sans-serif" font-size="24" font-weight="700" fill="#1C2430">days</text>

  <rect x="86" y="270" width="228" height="42" rx="12" fill="#FFE8DD" stroke="#FFB18D"/>
  <text x="102" y="297" font-family="Avenir Next, Segoe UI, sans-serif" font-size="18" font-weight="700" fill="#5F2E1B">Dashboard</text>

  <text x="102" y="343" font-family="Avenir Next, Segoe UI, sans-serif" font-size="18" fill="#2D3643">Study Sessions</text>
  <text x="102" y="385" font-family="Avenir Next, Segoe UI, sans-serif" font-size="18" fill="#2D3643">Courses</text>
  <text x="102" y="427" font-family="Avenir Next, Segoe UI, sans-serif" font-size="18" fill="#2D3643">Goals</text>
  <text x="102" y="469" font-family="Avenir Next, Segoe UI, sans-serif" font-size="18" fill="#2D3643">Insights</text>

  <rect x="86" y="640" width="228" height="145" rx="16" fill="#0E7C86" fill-opacity="0.08" stroke="#0E7C86" stroke-opacity="0.35" stroke-dasharray="5 5"/>
  <text x="102" y="672" font-family="Avenir Next, Segoe UI, sans-serif" font-size="16" fill="#184D53">Focus for today:</text>
  <text x="102" y="703" font-family="Avenir Next, Segoe UI, sans-serif" font-size="14" fill="#184D53">Finish Data Structures lesson 4</text>
  <text x="102" y="727" font-family="Avenir Next, Segoe UI, sans-serif" font-size="14" fill="#184D53">+ complete one 25-min review block.</text>

  <text x="375" y="118" font-family="Avenir Next, Segoe UI, sans-serif" font-size="52" font-weight="800" fill="#1C2430">Make today count.</text>
  <text x="375" y="168" font-family="Avenir Next, Segoe UI, sans-serif" font-size="38" font-weight="700" fill="#1C2430">You are 82% on weekly goal.</text>
  <text x="375" y="198" font-family="Avenir Next, Segoe UI, sans-serif" font-size="18" fill="#5D6876">Monday, February 17 • 3 sessions completed • 1 pending review</text>

  <rect x="1100" y="98" width="245" height="58" rx="14" fill="url(#accent)"/>
  <text x="1130" y="135" font-family="Avenir Next, Segoe UI, sans-serif" font-size="20" font-weight="800" fill="white">Start Focus Session</text>

  <g>
    <rect x="372" y="230" width="236" height="130" rx="16" fill="#FFFFFF" fill-opacity="0.74" stroke="#1C2430" stroke-opacity="0.12"/>
    <text x="390" y="261" font-family="Avenir Next, Segoe UI, sans-serif" font-size="13" fill="#5D6876">STUDY MINUTES</text>
    <text x="390" y="317" font-family="Avenir Next, Segoe UI, sans-serif" font-size="46" font-weight="800" fill="#1C2430">1,245</text>
    <text x="390" y="343" font-family="Avenir Next, Segoe UI, sans-serif" font-size="15" fill="#3F4B5A">+18% vs last week</text>
  </g>

  <g>
    <rect x="622" y="230" width="236" height="130" rx="16" fill="#FFFFFF" fill-opacity="0.74" stroke="#1C2430" stroke-opacity="0.12"/>
    <text x="640" y="261" font-family="Avenir Next, Segoe UI, sans-serif" font-size="13" fill="#5D6876">COMPLETION RATE</text>
    <text x="640" y="317" font-family="Avenir Next, Segoe UI, sans-serif" font-size="46" font-weight="800" fill="#1C2430">68%</text>
    <text x="640" y="343" font-family="Avenir Next, Segoe UI, sans-serif" font-size="15" fill="#3F4B5A">2 courses above target</text>
  </g>

  <g>
    <rect x="872" y="230" width="236" height="130" rx="16" fill="#FFFFFF" fill-opacity="0.74" stroke="#1C2430" stroke-opacity="0.12"/>
    <text x="890" y="261" font-family="Avenir Next, Segoe UI, sans-serif" font-size="13" fill="#5D6876">ACTIVE COURSES</text>
    <text x="890" y="317" font-family="Avenir Next, Segoe UI, sans-serif" font-size="46" font-weight="800" fill="#1C2430">6</text>
    <text x="890" y="343" font-family="Avenir Next, Segoe UI, sans-serif" font-size="15" fill="#3F4B5A">1 at risk</text>
  </g>

  <g>
    <rect x="1122" y="230" width="236" height="130" rx="16" fill="#FFFFFF" fill-opacity="0.74" stroke="#1C2430" stroke-opacity="0.12"/>
    <text x="1140" y="261" font-family="Avenir Next, Segoe UI, sans-serif" font-size="13" fill="#5D6876">NEXT MILESTONE</text>
    <text x="1140" y="317" font-family="Avenir Next, Segoe UI, sans-serif" font-size="46" font-weight="800" fill="#1C2430">4 days</text>
    <text x="1140" y="343" font-family="Avenir Next, Segoe UI, sans-serif" font-size="15" fill="#3F4B5A">Frontend capstone checkpoint</text>
  </g>

  <rect x="372" y="380" width="620" height="440" rx="18" fill="#FFFFFF" fill-opacity="0.74" stroke="#1C2430" stroke-opacity="0.12"/>
  <text x="396" y="420" font-family="Avenir Next, Segoe UI, sans-serif" font-size="28" font-weight="700" fill="#1C2430">Weekly Momentum</text>

  <g>
    <rect x="425" y="610" width="55" height="150" rx="8" fill="url(#tealBar)"/>
    <rect x="502" y="585" width="55" height="175" rx="8" fill="url(#tealBar)"/>
    <rect x="579" y="557" width="55" height="203" rx="8" fill="url(#tealBar)"/>
    <rect x="656" y="522" width="55" height="238" rx="8" fill="url(#tealBar)"/>
    <rect x="733" y="490" width="55" height="270" rx="8" fill="url(#tealBar)"/>
    <rect x="810" y="570" width="55" height="190" rx="8" fill="url(#tealBar)"/>
    <rect x="887" y="542" width="55" height="218" rx="8" fill="url(#tealBar)"/>

    <text x="439" y="784" font-family="Avenir Next, Segoe UI, sans-serif" font-size="13" fill="#5D6876">Mon</text>
    <text x="516" y="784" font-family="Avenir Next, Segoe UI, sans-serif" font-size="13" fill="#5D6876">Tue</text>
    <text x="593" y="784" font-family="Avenir Next, Segoe UI, sans-serif" font-size="13" fill="#5D6876">Wed</text>
    <text x="670" y="784" font-family="Avenir Next, Segoe UI, sans-serif" font-size="13" fill="#5D6876">Thu</text>
    <text x="748" y="784" font-family="Avenir Next, Segoe UI, sans-serif" font-size="13" fill="#5D6876">Fri</text>
    <text x="823" y="784" font-family="Avenir Next, Segoe UI, sans-serif" font-size="13" fill="#5D6876">Sat</text>
    <text x="900" y="784" font-family="Avenir Next, Segoe UI, sans-serif" font-size="13" fill="#5D6876">Sun</text>
  </g>

  <rect x="1010" y="380" width="348" height="220" rx="18" fill="#FFFFFF" fill-opacity="0.74" stroke="#1C2430" stroke-opacity="0.12"/>
  <text x="1034" y="420" font-family="Avenir Next, Segoe UI, sans-serif" font-size="28" font-weight="700" fill="#1C2430">Goal Progress</text>
  <circle cx="1183" cy="501" r="72" stroke="#E6ECEF" stroke-width="22"/>
  <circle cx="1183" cy="501" r="72" stroke="#2E9D67" stroke-width="22" stroke-dasharray="310 452" transform="rotate(-90 1183 501)"/>
  <text x="1150" y="512" font-family="Avenir Next, Segoe UI, sans-serif" font-size="30" font-weight="800" fill="#225F43">68%</text>

  <rect x="1010" y="618" width="348" height="202" rx="18" fill="#FFFFFF" fill-opacity="0.74" stroke="#1C2430" stroke-opacity="0.12"/>
  <text x="1034" y="658" font-family="Avenir Next, Segoe UI, sans-serif" font-size="28" font-weight="700" fill="#1C2430">Today Queue</text>

  <rect x="1032" y="675" width="302" height="38" rx="10" fill="#FFFFFF" stroke="#1C2430" stroke-opacity="0.12"/>
  <text x="1046" y="700" font-family="Avenir Next, Segoe UI, sans-serif" font-size="14" fill="#334152">Algorithms: Graph traversal quiz</text>
  <rect x="1274" y="683" width="56" height="22" rx="11" fill="#CFEFDF"/>
  <text x="1289" y="699" font-family="Avenir Next, Segoe UI, sans-serif" font-size="12" font-weight="800" fill="#1D6A44">Ready</text>

  <rect x="1032" y="721" width="302" height="38" rx="10" fill="#FFFFFF" stroke="#1C2430" stroke-opacity="0.12"/>
  <text x="1046" y="746" font-family="Avenir Next, Segoe UI, sans-serif" font-size="14" fill="#334152">React: State management recap</text>
  <rect x="1270" y="729" width="60" height="22" rx="11" fill="#FDE8BE"/>
  <text x="1281" y="745" font-family="Avenir Next, Segoe UI, sans-serif" font-size="12" font-weight="800" fill="#8C5E12">Due 6pm</text>

  <rect x="1032" y="767" width="302" height="38" rx="10" fill="#FFFFFF" stroke="#1C2430" stroke-opacity="0.12"/>
  <text x="1046" y="792" font-family="Avenir Next, Segoe UI, sans-serif" font-size="14" fill="#334152">SQL: Joins and aggregation practice</text>
  <rect x="1269" y="775" width="61" height="22" rx="11" fill="#F7D3E0"/>
  <text x="1278" y="791" font-family="Avenir Next, Segoe UI, sans-serif" font-size="12" font-weight="800" fill="#7F2D49">Overdue</text>
</svg>
